PathFileType	4	(X/Y/Z)	/Users/itak/Documents/Research/Walk-IL/dataset/trc/00329_00011.trc
DataRate	CameraRate	NumFrames	NumMarkers	Units	OrigDataRate	OrigDataStartFrame	OrigNumFrames
100.000000	100.000000	4	53	mm	100.000000	205	548
Frame#	Time	RPSI			LPSI			L3			STRN			T10			C7			CLAV			RBAK			LBAK			LSHO			LUPA			LAEL			LAOL			LWTS			LWPS			LFRA			LIFD			LHPS			LHTS			RSHO			RUPA			RAEL			RAOL			RWTS			RWPS			RFRA			RIFD			RHTS			RHPS			RBHD			LFHD			RFHD			LBHD			LHIP			RHIP			RASI			LASI			LKNE			LTHI			LANK			LTIP			LTOE			LMT5			LHEE			RKNE			RTHI			RANK			RTIP			RTOE			RMT1			RMT5			RHEE			LMT1			
		X1	Y1	Z1	X2	Y2	Z2	X3	Y3	Z3	X4	Y4	Z4	X5	Y5	Z5	X6	Y6	Z6	X7	Y7	Z7	X8	Y8	Z8	X9	Y9	Z9	X10	Y10	Z10	X11	Y11	Z11	X12	Y12	Z12	X13	Y13	Z13	X14	Y14	Z14	X15	Y15	Z15	X16	Y16	Z16	X17	Y17	Z17	X18	Y18	Z18	X19	Y19	Z19	X20	Y20	Z20	X21	Y21	Z21	X22	Y22	Z22	X23	Y23	Z23	X24	Y24	Z24	X25	Y25	Z25	X26	Y26	Z26	X27	Y27	Z27	X28	Y28	Z28	X29	Y29	Z29	X30	Y30	Z30	X31	Y31	Z31	X32	Y32	Z32	X33	Y33	Z33	X34	Y34	Z34	X35	Y35	Z35	X36	Y36	Z36	X37	Y37	Z37	X38	Y38	Z38	X39	Y39	Z39	X40	Y40	Z40	X41	Y41	Z41	X42	Y42	Z42	X43	Y43	Z43	X44	Y44	Z44	X45	Y45	Z45	X46	Y46	Z46	X47	Y47	Z47	X48	Y48	Z48	X49	Y49	Z49	X50	Y50	Z50	X51	Y51	Z51	X52	Y52	Z52	X53	Y53	Z53	

206	2.05	509.1351013183594	943.9232177734375	187.8938140869141	511.3017883300781	948.2025756835938	55.7313346862793	506.9204406738281	1022.31884765625	116.7007446289062	771.3370361328125	1174.550537109375	108.7570571899414	522.0499877929688	1141.962158203125	102.5051956176758	594.8027954101562	1382.595703125	84.56309509277344	741.7080078125	1302.44140625	99.75413513183594	522.2044067382812	1255.326904296875	154.4217071533203	588.5103759765625	1344.429931640625	-17.96731948852539	681.3338012695312	1350.114501953125	-66.73802185058594	664.8919067382812	1232.73876953125	-137.2818145751953	686.89208984375	1029.054565429688	-157.1674346923828	614.9706420898438	1012.779296875	-114.4906387329102	803.3585815429688	806.2362060546875	-89.11782073974609	776.55078125	786.1727905273438	-149.6492004394531	712.3853759765625	926.2817993164062	-160.6747589111328	837.099365234375	650.8086547851562	-73.25918579101562	785.6890869140625	716.7540893554688	-139.5563201904297	832.18115234375	731.8505859375	-98.6505126953125	647.4141845703125	1362.627685546875	250.3939819335938	627.80859375	1302.3564453125	317.462158203125	616.9998779296875	1037.06787109375	370.0685424804688	572.8353881835938	1023.598815917969	286.7367858886719	732.2035522460938	811.9397583007812	336.779541015625	696.4246826171875	797.4130249023438	403.2805786132812	642.1260375976562	969.6798706054688	384.3446960449219	756.607177734375	641.837646484375	352.9813232421875	767.82666015625	714.146484375	357.7477416992188	717.4397583007812	715.0835571289062	404.9677734375	618.7476806640625	1562.257568359375	167.8140411376953	793.044677734375	1601.664184570312	60.98600006103516	776.3563232421875	1601.129272460938	160.6838073730469	616.3527221679688	1553.899536132812	23.46311569213867	600.5634765625	887.139892578125	-45.52577590942383	593.54248046875	896.7841796875	296.0590209960938	696.43115234375	929.0585327148438	251.0813140869141	720.7555541992188	912.1546020507812	12.7343053817749	640.498046875	426.18896484375	-10.82266330718994	642.848388671875	567.7099609375	-28.53493309020996	419.76220703125	55.07025146484375	20.71380805969238	533.1195678710938	227.6237030029297	-5.518475532531738	623.823974609375	36.27341842651367	76.49556732177734	543.3262329101562	45.65236663818359	6.153165340423584	383.6714477539062	57.83408355712891	87.67080688476562	808.4168090820312	470.9994201660156	290.2513427734375	723.627197265625	713.6431274414062	314.5870361328125	874.0765380859375	53.4881591796875	281.8351440429688	851.8554077148438	361.8193969726562	287.7740783691406	1066.506225585938	61.08182907104492	223.0513763427734	1007.763671875	60.98397827148438	184.6284790039062	976.9290771484375	41.07722854614258	295.109375	821.708251953125	53.02810287475586	236.4701843261719	553.4194946289062	26.05615997314453	119.2312469482422	
207	2.06	502.5433654785156	944.797607421875	186.7718353271484	504.8874816894531	949.0199584960938	54.58673858642578	498.906005859375	1023.458679199219	115.1381988525391	765.3241577148438	1175.397827148438	107.5862884521484	516.2351684570312	1142.843994140625	101.7818450927734	588.8434448242188	1383.475952148438	83.51119995117188	735.7695922851562	1303.304321289062	98.56227874755859	516.233642578125	1256.333374023438	153.5504608154297	582.4049072265625	1345.207641601562	-18.98941230773926	675.1777954101562	1350.809448242188	-67.88961791992188	658.5241088867188	1233.5908203125	-138.5718383789062	680.2770385742188	1029.991333007812	-159.3369293212891	608.2266845703125	1013.752868652344	-116.8044281005859	795.1238403320312	805.91015625	-92.64838409423828	768.3489990234375	786.5478515625	-153.4256591796875	705.1635131835938	927.0985107421875	-163.4743804931641	827.7810668945312	650.2628173828125	-77.84512329101562	777.0130004882812	716.952392578125	-143.7647857666016	823.4664306640625	731.457763671875	-102.6544647216797	641.6590576171875	1363.540893554688	249.2794494628906	622.1181640625	1303.18994140625	316.3716735839844	610.2526245117188	1037.627807617188	368.0711669921875	566.3338012695312	1024.697143554688	284.4514770507812	724.2671508789062	811.7268676757812	335.9398498535156	686.9946899414062	797.1688842773438	401.3388061523438	634.6781616210938	970.1746826171875	382.1721801757812	747.138427734375	641.5909423828125	351.5313720703125	758.8966064453125	713.740478515625	357.3041381835938	707.2075805664062	714.6236572265625	402.8934631347656	613.262939453125	1563.578857421875	166.3487548828125	787.91455078125	1602.056030273438	59.68347549438477	771.1204223632812	1601.68994140625	159.3525085449219	611.014892578125	1555.156616210938	22.01800918579102	594.80908203125	888.0065307617188	-46.38435363769531	586.96875	897.66259765625	295.0225219726562	689.8667602539062	929.79345703125	249.9955139160156	714.4293823242188	912.91455078125	11.79487800598145	635.9345703125	426.8778686523438	-10.8012752532959	637.5934448242188	568.6095581054688	-28.91740417480469	419.338134765625	53.94820404052734	21.48698043823242	530.685791015625	227.3689727783203	-4.94982385635376	623.8956298828125	36.34159088134766	76.47161865234375	543.1471557617188	45.64703369140625	6.551650047302246	383.2686462402344	55.96757507324219	88.53147888183594	803.8182983398438	472.973876953125	289.7304992675781	716.65966796875	713.9984741210938	314.0968322753906	864.4974975585938	54.44760131835938	282.0799865722656	845.7640380859375	363.2678833007812	287.2763671875	1056.823120117188	64.55599975585938	223.6415863037109	998.1741943359375	63.2808837890625	185.0593566894531	967.46337890625	43.38573455810547	295.5082702636719	811.9874267578125	53.52127075195312	236.7039031982422	553.4208984375	25.90491485595703	119.4176177978516	
208	2.07	496.2222595214844	945.908203125	185.7412567138672	498.8049621582031	950.0121459960938	53.6009407043457	491.2397155761719	1024.783935546875	113.7385025024414	759.4282836914062	1176.511596679688	106.4509658813477	510.5101928710938	1143.892700195312	101.1961517333984	582.8593139648438	1384.552124023438	82.60479736328125	729.8538818359375	1304.41845703125	97.4420166015625	510.3346557617188	1257.509033203125	152.8543701171875	576.2379760742188	1346.20849609375	-19.85630416870117	668.9276123046875	1351.764404296875	-68.93450164794922	652.0148315429688	1234.680297851562	-139.7149047851562	673.5029296875	1031.197021484375	-161.2772521972656	601.3942260742188	1014.993530273438	-118.7618408203125	786.5991821289062	805.6749267578125	-96.32783508300781	759.7411499023438	787.114990234375	-157.31640625	697.7026977539062	928.1690673828125	-166.1488494873047	817.9859008789062	649.734375	-82.84284973144531	767.8286743164062	717.3465576171875	-148.2099456787109	814.368408203125	731.1441650390625	-106.9637603759766	635.9495849609375	1364.662475585938	248.264892578125	616.525146484375	1304.225708007812	315.4060363769531	603.6065063476562	1038.393920898438	366.2041015625	559.968994140625	1026	282.2580261230469	716.5980834960938	811.8525390625	335.5674743652344	677.478515625	797.0751953125	399.5745849609375	627.160888671875	970.8806762695312	380.10009765625	737.9981689453125	641.6423950195312	350.3644104003906	750.1510620117188	713.64599609375	357.3273010253906	696.8963012695312	714.3442993164062	400.9446105957031	607.7514038085938	1565.1796875	164.9830627441406	782.7447509765625	1602.627685546875	58.401611328125	765.8695068359375	1602.460815429688	158.0573577880859	605.6021118164062	1556.652221679688	20.67066192626953	589.1922607421875	889.016845703125	-47.16828536987305	580.6906127929688	898.8463745117188	294.0798034667969	683.5260620117188	930.83203125	248.9204559326172	708.3231811523438	913.9030151367188	10.83689022064209	631.6453247070312	427.7492980957031	-10.50227737426758	632.6265869140625	569.6355590820312	-29.03295135498047	419.0468139648438	53.15907287597656	22.3768482208252	528.469482421875	227.3837738037109	-4.19227933883667	624.025390625	36.35024261474609	76.49752044677734	543.0197143554688	45.72134780883789	7.00927209854126	382.9617919921875	54.49861907958984	89.49837493896484	799.1063232421875	475.0301513671875	289.1255187988281	709.70458984375	714.2999267578125	313.9133605957031	853.2241821289062	55.39065933227539	282.1529541015625	839.1845092773438	364.6837158203125	286.7338256835938	1045.520629882812	67.30935668945312	224.3738708496094	987.0568237304688	64.97706604003906	185.5120391845703	956.20703125	45.29280090332031	295.8922424316406	800.6315307617188	54.25648498535156	236.6436004638672	553.5181274414062	25.78883171081543	119.6699066162109	
209	2.08	490.16259765625	947.2437133789062	184.7717132568359	493.0544738769531	951.1756591796875	52.74554443359375	484.0595703125	1026.261840820312	112.5160598754883	753.6525268554688	1177.879272460938	105.3572463989258	504.8534851074219	1145.096435546875	100.7099990844727	576.8473510742188	1385.807373046875	81.84002685546875	723.9500732421875	1305.766723632812	96.39859008789062	504.4931335449219	1258.837158203125	152.3083190917969	570.015869140625	1347.426391601562	-20.57180404663086	662.5931396484375	1352.989624023438	-69.86460876464844	645.3786010742188	1236.024047851562	-140.7186279296875	666.5355834960938	1032.68603515625	-162.9848785400391	594.4542236328125	1016.525512695312	-120.3383636474609	777.7915649414062	805.5733032226562	-100.1673812866211	750.6884155273438	787.8944702148438	-161.3017730712891	689.9639282226562	929.510498046875	-168.6943359375	807.7345581054688	649.2805786132812	-88.25495147705078	758.1220092773438	717.968505859375	-152.8680572509766	804.8946533203125	730.9571533203125	-111.59619140625	630.2522583007812	1365.972778320312	247.3436126708984	610.9947509765625	1305.44580078125	314.5564270019531	597.059326171875	1039.362670898438	364.4811096191406	553.78173828125	1027.484008789062	280.18017578125	709.224609375	812.327392578125	335.6493530273438	667.97802734375	797.1571655273438	398.0188903808594	619.5828857421875	971.8037109375	378.1607666015625	729.2508544921875	641.9794921875	349.4898986816406	741.6262817382812	713.8589477539062	357.7531127929688	686.63525390625	714.273681640625	399.1656799316406	602.2154541015625	1567.02978515625	163.72802734375	777.526611328125	1603.370727539062	57.14128494262695	760.5949096679688	1603.426391601562	156.8050842285156	600.110595703125	1558.353637695312	19.42916297912598	583.6712646484375	890.158203125	-47.90993499755859	574.644775390625	900.3248901367188	293.211669921875	677.378173828125	932.1659545898438	247.8809204101562	702.4351806640625	915.10009765625	9.887275695800781	627.5941772460938	428.7890014648438	-9.978306770324707	627.9281616210938	570.7631225585938	-28.90686225891113	418.866455078125	52.643310546875	23.33698272705078	526.44091796875	227.6247406005859	-3.306244850158691	624.193603515625	36.30288314819336	76.56927490234375	542.9177856445312	45.85847091674805	7.506151676177979	382.7514953613281	53.36745834350586	90.52129364013672	794.2969360351562	477.1748352050781	288.4381408691406	702.6190795898438	714.496826171875	314.1662292480469	840.1853637695312	56.36057281494141	282.0205993652344	832.1165771484375	366.0537414550781	286.1634521484375	1032.56689453125	69.25159454345703	225.2402954101562	974.3801879882812	66.04457092285156	185.9758605957031	943.097900390625	46.74910354614258	296.2391662597656	787.6152954101562	55.29591369628906	236.2637176513672	553.6901245117188	25.68986511230469	119.9785919189453	
